# xmcd
#
# Track frame offsets: 
#        150
#        27855
#        41248
#        69321
#        90187
#        102514
#        122539
#        142515
#
# Disc length: 2190 seconds
#
# Revision: 1
# Processed by: cddbd v1.5.2PL0 Copyright (c) Steve Scherf et al.
# Submitted via: ExactAudioCopyFreeDBPlugin 1.0
#
DISCID=5a088c08
DTITLE=Roy Ayers Ubiquity - Virgo Red
DYEAR=1973
DGENRE=Soul
TTITLE0=Brother Louie
TTITLE1=Virgo Red
TTITLE2=I Am Your Mind
TTITLE3=The Morning After
TTITLE4=Love From The Sun
TTITLE5=It's So Sweet
TTITLE6=Giving Love
TTITLE7=Des Nude Soul
EXTD=YEAR: 1973
EXTT0=
EXTT1=
EXTT2=
EXTT3=
EXTT4=
EXTT5=
EXTT6=
EXTT7=
PLAYORDER=
